<?xml version="1.0" encoding="UTF-8"?>
<svg id="Layer_2" xmlns="http://www.w3.org/2000/svg" viewBox="0 0 88.43 8.47">
  <defs>
    <style>
      .cls-1 {
        fill: #231f20;
      }
    </style>
  </defs>
  <g id="Layer_1-2" data-name="Layer_1">
    <g>
      <path class="cls-1" d="M.01,8.14L1.68.26c.04-.17.16-.26.34-.26h1.15c.17,0,.29.07.35.24l1.96,4.92L9.43.18c.1-.13.22-.18.37-.18h1.43c.2,0,.31.11.26.32l-1.67,7.88c-.04.17-.16.26-.34.26h-1.04c-.2,0-.31-.11-.26-.32l1.16-5.47-3.48,4.21c-.1.12-.22.17-.37.17h-.67c-.17,0-.29-.07-.35-.24l-1.64-4.13-1.18,5.52c-.04.17-.16.26-.34.26H.27c-.2,0-.31-.11-.26-.32Z"/>
      <path class="cls-1" d="M11.75,5.55l.55-2.63c.38-1.8,1.28-2.93,3.26-2.93h3.09c1.98,0,2.81,1.13,2.41,2.93l-.55,2.63c-.37,1.79-1.27,2.92-3.26,2.92h-3.08c-1.99,0-2.79-1.13-2.42-2.92ZM17.4,6.87c.88,0,1.25-.32,1.45-1.26l.58-2.75c.2-.96-.01-1.27-.91-1.27h-3.08c-.89,0-1.24.31-1.45,1.27l-.58,2.75c-.2.94.02,1.26.9,1.26h3.09Z"/>
      <path class="cls-1" d="M21.72,5.55l.55-2.63c.38-1.8,1.28-2.93,3.26-2.93h3.09c1.98,0,2.81,1.13,2.41,2.93l-.55,2.63c-.37,1.79-1.27,2.92-3.26,2.92h-3.08c-1.99,0-2.79-1.13-2.42-2.92ZM27.37,6.87c.88,0,1.25-.32,1.45-1.26l.58-2.75c.2-.96-.01-1.27-.91-1.27h-3.08c-.89,0-1.24.31-1.45,1.27l-.58,2.75c-.2.94.02,1.26.9,1.26h3.09Z"/>
      <path class="cls-1" d="M31.29,8.14l1.67-7.88c.04-.17.16-.26.34-.26h4.97c1.98,0,2.82,1.06,2.36,3.18l-.46,2.16c-.44,2.11-1.32,3.13-3.3,3.13h-5.31c-.2,0-.31-.11-.26-.32ZM36.82,6.88c.9,0,1.42-.25,1.7-1.57l.46-2.12c.28-1.32-.11-1.59-1.04-1.59h-3.59l-1.13,5.29h3.6Z"/>
      <path class="cls-1" d="M41.33,5.55l.55-2.63c.38-1.8,1.29-2.93,3.27-2.93h2.67c1.99,0,2.79,1.13,2.41,2.93v.06c-.05.18-.16.28-.34.28h-1.06c-.2,0-.32-.07-.3-.2l.04-.19c.23-1.04-.07-1.27-.9-1.27h-2.67c-.83,0-1.22.23-1.45,1.27l-.58,2.75c-.22,1.03.1,1.26.9,1.26h2.67c.82,0,1.24-.23,1.45-1.26l.05-.26c.04-.17.16-.26.34-.26h1.06c.2,0,.31.08.29.23l-.05.24c-.37,1.79-1.2,2.92-3.19,2.92h-2.76c-1.99,0-2.78-1.13-2.41-2.92Z"/>
      <path class="cls-1" d="M50.38,8.14l1.67-7.88c.04-.17.16-.26.34-.26h1.06c.2,0,.31.11.26.32l-.67,3.17h4.56l.67-3.23c.04-.17.16-.26.34-.26h1.07c.2,0,.31.11.26.32l-1.67,7.88c-.04.17-.16.26-.34.26h-1.07c-.2,0-.31-.11-.26-.32l.68-3.19h-4.56l-.68,3.25c-.04.17-.16.26-.34.26h-1.06c-.2,0-.31-.11-.26-.32Z"/>
      <path class="cls-1" d="M60.18,5.55l.55-2.63c.38-1.8,1.28-2.93,3.26-2.93h3.09c1.98,0,2.81,1.13,2.41,2.93l-.55,2.63c-.37,1.79-1.27,2.92-3.26,2.92h-3.08c-1.99,0-2.79-1.13-2.42-2.92ZM65.83,6.87c.88,0,1.25-.32,1.45-1.26l.58-2.75c.2-.96-.01-1.27-.91-1.27h-3.08c-.89,0-1.24.31-1.45,1.27l-.58,2.75c-.2.94.02,1.26.9,1.26h3.09Z"/>
      <path class="cls-1" d="M78.88,3.06l-.05.19c-.31,1.51-.91,2.52-2.32,2.87l.97,2c.1.2,0,.35-.23.35h-1.19c-.17,0-.29-.07-.35-.23l-.86-1.99h-3.05l-.41,1.96c-.04.17-.16.26-.34.26h-1.06c-.2,0-.31-.11-.26-.32l1.67-7.88c.04-.17.16-.26.34-.26h4.17c2.46,0,3.38,1.03,2.95,3.06ZM75.67,1.6h-2.85l-.66,3.07h2.87c1.27,0,1.85-.22,2.15-1.44l.04-.17c.29-1.22-.23-1.46-1.54-1.46Z"/>
      <path class="cls-1" d="M78.98,8.14l1.67-7.88c.04-.17.16-.26.34-.26h4.96c1.98,0,2.82,1.06,2.36,3.18l-.46,2.16c-.44,2.11-1.32,3.13-3.3,3.13h-5.31c-.2,0-.31-.11-.26-.32ZM84.51,6.88c.9,0,1.42-.25,1.7-1.57l.46-2.12c.28-1.32-.11-1.59-1.04-1.59h-3.59l-1.13,5.29h3.6Z"/>
    </g>
  </g>
</svg>