<?xml version="1.0" encoding="UTF-8"?>
<svg id="Layer_2" xmlns="http://www.w3.org/2000/svg" viewBox="0 0 65.43 8.8">
  <defs>
    <style>
      .cls-1 {
        fill: none;
        stroke: #231f20;
        stroke-miterlimit: 10;
      }

      .cls-2 {
        fill: #231f20;
      }
    </style>
  </defs>
  <g id="Layer_1-2" data-name="Layer_1">
    <g>
      <g>
        <path class="cls-2" d="M28.57.17h1.15c.11,0,.2.09.2.2v8c0,.11-.09.2-.2.2h-1.35v-.71c-.46.58-1.1.88-1.94.88s-1.5-.31-2.07-.92c-.57-.61-.86-1.36-.86-2.25s.29-1.64.86-2.25c.57-.61,1.26-.92,2.07-.92.66,0,1.2.18,1.62.54.13.11.32.02.32-.15V.37c0-.11.09-.2.2-.2ZM25.52,6.79c.32.32.71.47,1.19.47s.88-.16,1.19-.47c.31-.32.47-.72.47-1.22s-.16-.9-.47-1.22c-.31-.32-.71-.47-1.19-.47s-.88.16-1.19.47-.47.72-.47,1.22.16.9.47,1.22Z"/>
        <path class="cls-2" d="M35.39,8.74c-1.26,0-2.31-.42-3.13-1.26-.82-.84-1.24-1.88-1.24-3.11s.41-2.28,1.24-3.11c.82-.84,1.87-1.25,3.13-1.25.76,0,1.46.18,2.11.53.58.32,1.04.74,1.39,1.26.06.1.03.23-.07.29l-1.08.62c-.09.05-.21.02-.26-.07-.2-.3-.46-.54-.79-.72-.38-.21-.82-.32-1.3-.32-.82,0-1.47.26-1.97.77-.5.51-.75,1.18-.75,1.99s.25,1.47.75,1.98c.5.51,1.16.77,1.97.77.48,0,.91-.11,1.3-.32.33-.18.59-.41.78-.71.06-.09.17-.12.26-.07l1.08.62c.1.06.14.19.07.29-.35.52-.81.94-1.38,1.26-.64.36-1.34.53-2.11.53Z"/>
        <path class="cls-2" d="M43.39,2.4c.66,0,1.2.22,1.63.66.43.44.64,1.05.64,1.82v3.48c0,.11-.09.2-.2.2h-1.15c-.11,0-.2-.09-.2-.2v-3.29c0-.4-.11-.71-.32-.92-.22-.21-.5-.32-.86-.32-.4,0-.72.12-.96.37-.24.25-.36.62-.36,1.12v3.04c0,.11-.09.2-.2.2h-1.15c-.11,0-.2-.09-.2-.2V.37c0-.11.09-.2.2-.2h1.15c.11,0,.2.09.2.2v2.36c0,.17.2.26.33.15.36-.31.85-.47,1.46-.47Z"/>
        <path class="cls-2" d="M52.09,7.82c-.62.61-1.37.92-2.26.92s-1.64-.31-2.25-.92-.92-1.36-.92-2.25.31-1.64.92-2.25,1.36-.92,2.25-.92,1.64.31,2.26.92c.62.61.92,1.36.92,2.25s-.31,1.64-.92,2.25ZM48.67,6.76c.31.31.69.47,1.16.47s.85-.16,1.16-.47.47-.71.47-1.19-.16-.88-.47-1.19-.7-.47-1.16-.47-.85.16-1.16.47c-.31.31-.46.71-.46,1.19s.15.88.46,1.19Z"/>
        <path class="cls-2" d="M55.65,3.6c.14-.38.38-.67.71-.86.33-.19.7-.29,1.11-.29v1.52c0,.11-.1.2-.21.19-.39,0-.74.09-1.06.3-.37.25-.56.66-.56,1.24v2.67c0,.11-.09.2-.2.2h-1.15c-.11,0-.2-.09-.2-.2V2.77c0-.11.09-.2.2-.2h1.35v1.03Z"/>
        <path class="cls-2" d="M63.09.17h1.15v8.03c0,.21-.17.37-.37.37h-1.18v-.71c-.46.58-1.1.88-1.94.88s-1.5-.31-2.07-.92c-.57-.61-.86-1.36-.86-2.25s.29-1.64.86-2.25c.57-.61,1.26-.92,2.07-.92s1.49.29,1.94.88V.57c0-.22.18-.4.4-.4ZM59.84,6.79c.32.32.71.47,1.19.47s.88-.16,1.19-.47c.31-.32.47-.72.47-1.22s-.16-.9-.47-1.22c-.31-.32-.71-.47-1.19-.47s-.88.16-1.19.47-.47.72-.47,1.22.16.9.47,1.22Z"/>
      </g>
      <path class="cls-2" d="M8.22.6v8c0,.11-.09.2-.2.2h-1.24c-.11,0-.2-.09-.2-.2v-4.53c0-.2-.27-.28-.37-.1l-2,3.29h-.19s-1.99-3.27-1.99-3.27c-.1-.17-.37-.1-.37.1v4.51c0,.11-.09.2-.2.2H.2c-.11,0-.2-.09-.2-.2V.6c0-.11.09-.2.2-.2h1.39c.07,0,.13.04.17.1l2.18,3.59c.08.13.26.13.34,0L6.45.49c.04-.06.1-.1.17-.1h1.4c.11,0,.2.09.2.2Z"/>
      <rect class="cls-1" x="9.63" y="3.05" width="12.95" height="5.15" rx="2.57" ry="2.57"/>
      <circle class="cls-2" cx="60.89" cy="5.54" r="2.65"/>
      <path class="cls-2" d="M65.43,2.33V.98c0-.12-.07-.24-.18-.3l-1.01-.52v1.56s1.19.6,1.19.6Z"/>
    </g>
  </g>
</svg>