<?xml version="1.0" encoding="UTF-8"?>
<svg id="Layer_2" xmlns="http://www.w3.org/2000/svg" viewBox="0 0 10.18 9.32">
  <defs>
    <style>
      .cls-1 {
        fill: #231f20;
      }
    </style>
  </defs>
  <g id="Layer_1-2" data-name="Layer_1">
    <path class="cls-1" d="M7.41,0c-.24,0-.44.17-.49.4l-.57,2.33c-.3-.09-.66-.14-1.09-.14h-1.99c-1.92,0-2.5.96-2.84,2.63l-.32,1.45c-.36,1.71.2,2.66,2.13,2.66h1.99c1.78,0,2.39-.82,2.76-2.31l.39-1.8.85-3.6c.05-.23.26-.4.49-.4h1.46V0h-2.77ZM4.29,7.84h-1.92c-.72,0-.9-.19-.72-1.01l.38-1.77c.17-.81.42-1.01,1.16-1.01h1.91c.72,0,.9.2.72,1.01l-.38,1.77c-.18.82-.42,1.01-1.15,1.01Z"/>
  </g>
</svg>